<?xml version="1.0" encoding="UTF-8" standalone="no"?>
<!-- Created with Inkscape (http://www.inkscape.org/) -->

<svg
   xmlns:dc="http://purl.org/dc/elements/1.1/"
   xmlns:cc="http://creativecommons.org/ns#"
   xmlns:rdf="http://www.w3.org/1999/02/22-rdf-syntax-ns#"
   xmlns:svg="http://www.w3.org/2000/svg"
   xmlns="http://www.w3.org/2000/svg"
   xmlns:sodipodi="http://sodipodi.sourceforge.net/DTD/sodipodi-0.dtd"
   xmlns:inkscape="http://www.inkscape.org/namespaces/inkscape"
   width="42.078583mm"
   height="106.11086mm"
   viewBox="0 0 149.09734 375.98334"
   id="svg4186"
   version="1.1"
   inkscape:version="0.91 r13725"
   sodipodi:docname="alien monster.svg">
  <defs
     id="defs4188" />
  <sodipodi:namedview
     id="base"
     pagecolor="#ffffff"
     bordercolor="#666666"
     borderopacity="1.0"
     inkscape:pageopacity="0.0"
     inkscape:pageshadow="2"
     inkscape:zoom="0.46786288"
     inkscape:cx="571.68201"
     inkscape:cy="-63.608018"
     inkscape:document-units="px"
     inkscape:current-layer="layer1"
     showgrid="false"
     fit-margin-top="0"
     fit-margin-left="0"
     fit-margin-right="0"
     fit-margin-bottom="0"
     inkscape:window-width="1366"
     inkscape:window-height="705"
     inkscape:window-x="-8"
     inkscape:window-y="-8"
     inkscape:window-maximized="1" />
  <metadata
     id="metadata4191">
    <rdf:RDF>
      <cc:Work
         rdf:about="">
        <dc:format>image/svg+xml</dc:format>
        <dc:type
           rdf:resource="http://purl.org/dc/dcmitype/StillImage" />
        <dc:title></dc:title>
      </cc:Work>
    </rdf:RDF>
  </metadata>
  <g
     inkscape:label="Layer 1"
     inkscape:groupmode="layer"
     id="layer1"
     transform="translate(1044.3114,67.219545)">
    <path
       style="fill:#000000"
       d="m 45.183594,0 c -1.83815,0.03225 -1.751843,0.27947065 0.841797,2.4003906 2.0746,1.69638 2.73725,2.9602318 2.34375,4.4648438 -0.3017,1.153809 -0.176857,2.3266819 0.277343,2.6074218 0.4542,0.2807401 1.970694,2.5607978 3.371094,5.0664058 2.5353,4.536091 2.538747,4.553975 0.373047,4.240235 -1.28,-0.18543 -2.398397,-1.242539 -2.716797,-2.568359 -0.5963,-2.483101 -5.631978,-8.2460942 -7.205078,-8.2460942 -0.5984,0 -0.717728,-1.2949102 -0.298828,-3.25 C 42.561422,2.8874637 42.4873,1.828315 42,2.296875 c -0.4768,0.45834 -0.923186,1.24584 -0.992188,1.75 -0.069,0.50417 -0.237953,1.0304686 -0.376953,1.1679688 -0.1389,0.1375 -0.358481,1.2625 -0.488281,2.5 -0.2095,1.9989999 0.527016,2.7438002 1.978516,2 0.661,-0.33875 5.511718,6.8754772 5.511718,8.1972652 0,0.579181 -0.674999,1.052735 -1.5,1.052735 -2.39817,0 -1.7371,1.764479 1.25,3.33789 1.512502,0.796658 2.90779,1.496388 3.09961,1.554688 0.1919,0.05834 1.663837,-1.302361 3.273437,-3.025391 2.8331,-3.03288 3.226325,-6.867187 0.703125,-6.867187 -0.5718,0 -0.773818,-0.693243 -0.449218,-1.539063 0.3575,-0.93172 -0.0945,-1.788521 -1.144532,-2.175781 C 50.528134,9.38805 49.666438,7.9572525 49.648438,4.9140625 49.629838,1.8168225 47.935594,-0.0483 45.183594,0 Z m 53.255859,0.0078125 c -0.54147,-0.02511 -0.684875,0.34746815 -0.203125,1.1269531 0.4776,0.77269 0.189664,0.9644563 -0.847656,0.5664063 -1.0923,-0.41915 -1.943222,0.2993687 -2.794922,2.3554687 -0.6735,1.62604 -1.776419,3.2821707 -2.449219,3.6816406 -0.6728,0.39946 -2.418929,2.6390628 -3.880859,4.9765628 -3.0135,4.81836 -3.636728,5.072617 -5.423828,2.210937 -0.7003,-1.12134 -1.696991,-1.777824 -2.212891,-1.458984 -0.5159,0.31883 -1.213671,-0.675947 -1.550781,-2.210938 -1.17429,-5.3480492 -1.261788,-5.4590878 -3.429688,-4.2988278 -2.087,1.11689 -2.745275,3.0078125 -1.046875,3.0078126 0.5328,0 0.709178,0.6750002 0.392579,1.5000002 -0.316502,0.825 -0.0515,1.5 0.589843,1.5 0.6418,0 0.917582,0.402161 0.613281,0.894531 -0.745098,1.2056 2.009647,2.180429 4.185547,1.480469 1.3886,-0.44667 1.458391,-0.356857 0.337891,0.439453 -1.1992,0.85228 -1.1616,1.254426 0.25,2.666015 0.9142,0.914201 1.662109,2.081078 1.662109,2.591797 0,1.386601 2.755791,1.120395 3.337891,-0.322265 0.2774,-0.6875 0.540984,0.367703 0.583984,2.345703 0.0434,1.978 0.801194,5.04372 1.683594,6.8125 2.0887,4.18705 1.176378,4.96542 -2.044922,1.744141 -1.4083,-1.408342 -2.560547,-2.183286 -2.560547,-1.720704 0,0.462569 -1.2375,1.074276 -2.75,1.359375 -1.5125,0.285101 -4.023478,0.802368 -5.580078,1.148438 -1.7111,0.38044 -2.594075,0.248027 -2.234375,-0.333985 0.3272,-0.52942 -0.424222,-1.109995 -1.669922,-1.291015 -3.4254,-0.4978 -7.815712,0.293015 -7.195312,1.296875 0.30201,0.4884 0.316712,0.888672 0.03516,0.888672 -1.1742,0 -6.161244,-2.537959 -6.839844,-3.480469 -0.4227,-0.58702 -0.74,-0.276331 -0.75,0.730469 -0.008,0.9625 -0.690625,1.75 -1.515625,1.75 -0.825,0 -1.505625,-0.7875 -1.515625,-1.75 -0.0123,-1.40075 -0.191037,-1.470686 -0.898437,-0.353516 -0.4928,0.77796 -1.603366,1.119304 -2.509766,0.771484 -1.204,-0.462049 -1.454903,-1.343164 -0.970703,-3.396484 0.4603,-1.951793 0.335978,-2.475607 -0.419922,-1.771484 -0.5905,0.55 -1.344428,2.537306 -1.673828,4.416015 -0.7401,4.22044 -1.251692,5.083985 -3.013672,5.083985 -1.5456,0 -4.76349,-4.068561 -3.90039,-4.931641 0.3036,-0.3036 0.991243,0.231533 1.527343,1.189453 0.536,0.95792 1.435447,1.742188 1.998047,1.742188 0.56248,0 0.09509,-1.177538 -1.037109,-2.617188 -1.1325,-1.43964 -1.813672,-3.01464 -1.513672,-3.5 0.3,-0.48535 -0.140416,-0.882812 -0.978516,-0.882812 -0.8381,0 -2.020506,0.929526 -2.628906,2.066406 -0.8665,1.61899 -0.741934,2.623066 0.572266,4.628906 1.1145,1.70083 1.778768,5.173724 1.980469,10.339844 0.256498,6.56984 0.04498,7.845363 -1.357422,8.208984 -0.9134,0.236839 -2.222657,0.241017 -2.910157,0.0098 -1.7113,-0.57577 -1.588021,-4.253906 0.142579,-4.253906 1.872898,0 2.725078,-2.483926 1.330078,-3.878906 -2.7776,-2.77766 -9.23941,-0.279574 -16.97461,6.560546 -2.0641,1.82524 -4.41265,3.31836 -5.21875,3.31836 -0.8842,0 -1.241337,0.588802 -0.898437,1.482422 0.3127,0.81494 -0.82625,3.376902 -2.53125,5.695312 -1.7067,2.32076 -3.0996096,5.460698 -3.0996096,6.986328 0,1.97974 -0.7544782,3.16698 -2.6425782,4.15625 -1.5570998,0.81572 -2.2008593,1.657918 -1.5683593,2.048828 0.5905,0.36496 1.3556719,0.205455 1.7011719,-0.353515 0.3453999,-0.55897 1.1094656,-1.015625 1.6972656,-1.015625 1.2806,0 0.2460031,7.773498 -1.2792969,9.611328 -0.6758,0.81483 -0.660825,1.422055 0.046875,1.859375 0.724,0.44708 0.7321434,1.248093 0.027344,2.564453 -1.2391999,2.31555 -0.8742687,10.175199 0.5195313,11.199219 0.6275,0.461 0.5527812,0.74 -0.1992187,0.75 -2.0121001,0.02571 -6.53570944,4.751707 -5.2871094,5.523437 1.0668,0.65931 4.0948281,-1.33016 6.7363281,-4.425781 0.7379,-0.86473 1.25,-0.999728 1.25,-0.330078 0,0.62393 -0.8855969,1.754239 -1.9667969,2.511719 -1.082,0.75782 -2.6127969,3.81836 -3.4042968,6.80664 -0.791,2.98636 -1.9029032,6.62168 -2.4707032,8.07812 -0.5679,1.45645 -1.26508123,7.27679 -1.55078122,12.93555 -0.4795,9.49992 -0.36545938,10.39867 1.49414062,11.70117 1.5776,1.10497 1.8792312,2.09301 1.3945312,4.5625 -0.3767999,1.91989 -0.2768406,2.6607 0.2558594,1.89453 0.6994,-1.006 1.8029,-0.97986 5.5,0.13281 3.9345001,1.184 4.7025981,1.18682 5.1542961,0.01 0.292,-0.76087 1.3327,-1.41041 2.3125,-1.44531 1.294901,-0.0461 1.106094,-0.33346 -0.691406,-1.05078 l -2.474609,-0.98633 3.230469,-2.52735 c 1.776,-1.38991 3.67415,-3.36128 4.21875,-4.3789 1.0754,-2.0095 0.368959,-4.99414 -1.181641,-4.99414 -1.6826,0 -3.553959,-2.50923 -4.255859,-5.70508 -0.4228,-1.92486 -1.450357,-3.29229 -2.722657,-3.625 -1.1239,-0.29391 -1.752284,-1.00637 -1.396484,-1.58203 0.3558,-0.57565 0.141238,-1.99019 -0.476563,-3.14453 -0.6177984,-1.15435 -0.791418,-2.85197 -0.386718,-3.77149 0.4047,-0.91952 0.663172,-2.00937 0.576172,-2.42187 -0.087,-0.4125 0.347997,-0.75 0.966796,-0.75 0.730901,0 0.901682,-1.11465 0.488282,-3.18164 -0.3502,-1.74977 -0.362948,-4.64278 -0.02734,-6.42969 0.5272,-2.810127 1.003391,-3.237713 3.525391,-3.166013 3.4308,0.09754 4.166059,-0.471469 4.380859,-3.386719 0.2173,-2.94986 4.038147,-4.402664 4.248047,-1.615234 0.083,1.1028 -0.121378,1.732106 -0.455078,1.398438 -0.7869,-0.786912 -3.288275,2.792465 -3.796875,5.433588 -0.2171,1.12739 -1.427808,2.94987 -2.691406,4.05078 l -2.296876,2.00196 2.400391,-0.66797 c 1.9868,-0.55291 2.288141,-0.37268 1.744141,1.04492 -1.826,4.75837 -1.742269,11.12973 0.207031,15.67578 1.0986,2.56202 1.73175,4.92452 1.40625,5.25 -0.3255,0.32549 0.08205,0.5918 0.90625,0.5918 0.8237,0 2.100137,1.125 2.835937,2.5 1.353301,2.52853 3.411066,3.26262 4.447266,1.58593 0.3109,-0.50302 0.170153,-1.06552 -0.310547,-1.25 -1.4137,-0.54247 -2.429631,-4.83593 -1.144531,-4.83593 0.6906,0 0.943997,-1.16103 0.654297,-3 -0.2601,-1.65 -0.06295,-3 0.439453,-3 0.502,0 0.914063,-0.43601 0.914062,-0.96875 0,-0.53272 -0.599278,-0.73943 -1.330078,-0.45899 -0.737,0.28279 -1.81954,-0.51053 -2.43164,-1.78125 -0.8265,-1.71618 -1.120875,-1.86616 -1.171875,-0.59961 -0.037,0.93004 0.285043,1.90818 0.714843,2.17383 0.4299,0.26565 0.878147,1.76979 0.998047,3.34375 0.172,2.25725 -0.198912,2.86328 -1.757812,2.86328 -3.8819,0 -5.4248,-11.28171 -2.5,-18.28125 1.2101,-2.89674 1.264765,-3.80466 0.259765,-4.42578 -0.9615,-0.59422 -0.986162,-1.06065 -0.101562,-1.945307 0.6403,-0.63993 0.938064,-1.748721 0.664062,-2.462891 -0.344698,-0.89826 0.306329,-1.209859 2.111329,-1.011719 1.435,0.15753 2.385728,0.06147 2.111328,-0.21289 -0.8039,-0.80386 3.684384,-3.866604 6.771484,-4.621094 2.7577,-0.67402 2.818278,-0.603624 2.142578,2.472656 -0.4843,2.20531 -0.35889,2.958892 0.41211,2.482422 0.6088,-0.37627 1.119718,-1.44496 1.136718,-2.375 0.028,-1.55122 0.115782,-1.546748 1.050782,0.05859 0.5606,0.9625 1.6571,1.75 2.4375,1.75 0.8008,0 1.185465,0.605002 0.884765,1.388672 -0.3083,0.80337 -1.347897,1.177385 -2.466797,0.884765 -1.0645,-0.27837 -1.935546,-0.01876 -1.935547,0.578125 0,0.59686 0.629038,0.844067 1.398438,0.548829 0.7694,-0.295232 1.695494,-0.05625 2.058594,0.53125 1.0116,1.636722 3.542968,1.268222 3.542968,-0.515626 0,-2.180848 2.283329,-1.264685 3.486329,1.398438 0.5429,1.20192 1.528153,2.18555 2.189453,2.18555 0.8129,0 1.096806,1.53856 0.878906,4.75 -0.3613,5.32595 -1.316314,8.25 -2.695312,8.25 -1.155001,0 -2.886476,-4.39587 -1.884766,-4.78516 0.40318,-0.15668 0.526237,-1.36655 0.273437,-2.68945 -0.5378,-2.81292 -4.33854,-6.60347 -4.93164,-4.91797 -0.2145,0.6095 -1.076316,1.9595 -1.916016,3 -1.0897,1.35017 -1.675375,1.53469 -2.046875,0.64258 -0.7124,-1.71065 -2.021484,-1.5782 -2.021484,0.20508 0,0.8008 0.301368,1.27153 0.667968,1.04492 0.366701,-0.22661 0.666016,1.65689 0.666016,4.18554 0,3.37271 0.509609,4.97059 1.91211,5.9961 1.531599,1.11996 1.640887,1.56305 0.554687,2.23437 -0.7457,0.46087 -2.204941,0.61745 -3.244141,0.34571 -1.2597,-0.32944 -1.888671,0.0276 -1.888672,1.07421 0,2.60224 2.230657,6.66407 3.660157,6.66407 1.5816,0 1.798722,2.59798 0.294922,3.52734 -0.5741,0.35481 -1.77171,0.0434 -2.66211,-0.69141 -1.2132,-1.00131 -1.720384,-1.03725 -2.021484,-0.14257 -0.2211,0.65661 -1.048391,0.94552 -1.837891,0.64257 -0.9575,-0.36742 -1.433594,0.12851 -1.433594,1.48633 0,1.11956 -0.674998,2.71016 -1.5,3.53516 -0.824999,0.825 -1.499999,2.4049 -1.5,3.51172 0,1.10683 -0.449999,2.29094 -1,2.63086 -0.549998,0.33992 -1,0.97286 -1,1.40625 0,1.2843 3.640088,5.09375 4.867188,5.09375 0.623,0 1.169844,0.5625 1.214844,1.25 0.045,0.6875 0.278431,2.44163 0.519531,3.89843 0.3019,1.82401 -0.346231,3.58165 -2.082031,5.64454 -3.1956,3.79779 -3.161378,4.20703 0.357422,4.20703 2.2516,0 3.147681,0.64917 4.113281,2.98047 0.679,1.63932 0.959447,4.0778 0.623047,5.41796 -0.3719,1.48195 -0.145128,2.59158 0.576172,2.83204 0.7125,0.23749 -0.08705,1.72665 -2.001954,3.73046 -3.556198,3.72127 -3.814628,4.80185 -1.798828,7.5586 1.2272,1.6784 1.100669,2.2809 -1.082031,5.14258 -1.6718,2.1919 -2.261059,3.91184 -1.818359,5.30664 0.8965,2.8244 -1.22706,8.82122 -3.56836,10.07422 -1.0559,0.5651 -1.919921,1.47734 -1.919922,2.02734 0,0.663 0.636372,0.65844 1.888672,-0.0117 1.5219,-0.8145 1.98975,-0.626 2.40625,0.9668 0.2844,1.0876 0.110029,1.72617 -0.388672,1.41797 -0.936799,-0.579 -0.986762,-0.31306 -1.476562,8.05664 -0.161,2.75 -0.597303,6.6875 -0.970703,8.75 -0.4474,2.4725 -0.303625,3.75 0.421875,3.75 0.7128,0 0.993428,2.13634 0.798828,6.06054 -0.2963,5.9776 -0.265934,6.05182 2.134766,5.44922 l 2.433593,-0.60937 -2.724609,4.64843 c -2.6827,4.57789 -2.690281,4.63836 -0.488281,3.93946 1.9637,-0.62319 2.169653,-0.42231 1.689453,1.65039 -1.7024,7.3496 -1.830758,8.86133 -0.75586,8.86133 1.958301,0 3.877919,6.04315 2.949219,9.28125 -0.6137,2.1399 -0.445059,3.33629 0.619141,4.40039 2.0578,2.0579 1.878291,8.28198 -0.28711,9.92578 -2.189599,1.6621 -0.02695,1.87827 2.935547,0.29297 1.2581,-0.6734 1.812135,-0.70586 1.427735,-0.084 -0.3453,0.5588 -0.101785,2.29101 0.541015,3.84961 0.6427,1.5587 1.09486,3.17149 1.00586,3.58399 -0.089,0.4125 0.514844,0.75 1.339843,0.75 0.991901,0 1.5,0.99318 1.5,2.92968 0,2.8648 1.742394,5.48509 4.189454,6.30079 0.8265,0.2755 0.506578,1.17914 -0.982422,2.77734 -3.0525,3.2765 -2.803941,3.76135 1.792968,3.50195 4.2388,-0.2391 5.266,1.19474 2.5,3.49024 -0.825,0.6847 -1.5,2.00574 -1.5,2.93554 0,0.9297 -1.363083,2.99545 -3.027343,4.58985 -1.6642,1.5943 -2.792566,3.50118 -2.509766,4.23828 0.2829,0.7374 0.125391,1.10024 -0.349609,0.80664 -1.2983,-0.8023 -3.447507,7.96171 -2.691406,10.97461 l 0.658203,2.62695 2.742187,-3.44726 2.740234,-3.44922 1.941407,4.36133 c 1.0684,2.3994 2.340672,4.36328 2.826172,4.36328 0.4859,0 0.660373,-0.57911 0.388671,-1.28711 -0.2717,-0.708 0.125413,-2.6205 0.882813,-4.25 0.7574,-1.6295 1.167156,-2.06289 0.910156,-0.96289 -0.2569,1.1 -0.106415,2.57303 0.333985,3.27343 1.0366,1.6487 5.154297,2.44906 5.154296,1.00196 0,-0.6102 0.260479,-0.84695 0.580079,-0.52735 0.3195,0.3196 0.05909,1.55776 -0.580079,2.75196 -1.4121,2.6387 -0.665459,3.70157 1.306641,1.85937 0.9442,-0.8853 1.272025,-2.57367 0.953125,-4.95117 -0.3686,-2.748 -0.0858,-3.7614 1.1875,-4.25 1.4633,-0.5616 1.588559,-0.0889 1.00586,3.79688 -0.538902,3.5937 -0.270644,4.99506 1.410156,7.35546 1.1418,1.6036 1.834362,3.15773 1.539062,3.45313 -0.2954,0.2953 -0.0705,0.82513 0.5,1.17773 0.585,0.3615 1.294353,-0.57629 1.626953,-2.15039 0.3244,-1.535 1.012597,-3.57234 1.529297,-4.52734 0.5168,-0.9551 0.957563,-2.7551 0.976563,-4 0.0195,-1.245 0.642818,-3.36198 1.386719,-4.70508 1.180898,-2.1321 1.120178,-2.7667 -0.482422,-5 -2.4936,-3.4751 -3.51616,-13.62642 -1.56836,-15.57422 0.7945,-0.7945 1.753607,-3.26257 2.128906,-5.48437 0.375401,-2.2218 1.342138,-4.69956 2.148438,-5.50586 1.2881,-1.2881 1.246103,-1.76331 -0.341797,-3.91211 -0.9941,-1.3452 -2.837503,-2.92447 -4.095703,-3.50977 -1.8792,-0.8741 -2.1025,-1.40915 -1.25,-3.00195 1.4068,-2.6286 -0.275497,-6.82514 -2.904297,-7.24414 -1.9084,-0.3041 -1.948922,-0.51539 -0.607422,-3.08399 1.1092,-2.1239 1.196505,-3.45938 0.378907,-5.80468 -0.8972,-2.5739 -0.772813,-3.26439 0.804687,-4.45899 1.6677,-1.2631 1.686628,-1.41926 0.173828,-1.44726 -0.9313,-0.0175 -2.347684,-0.96507 -3.146484,-2.10547 -0.9084,-1.29699 -1.700235,-1.67149 -2.115235,-1 -0.3649,0.5904 -1.200368,1.06192 -1.855468,1.04492 -0.655,-0.0167 -0.401954,-0.49018 0.560546,-1.05078 2.3711,-1.381 2.200001,-3.42008 -0.5,-5.95508 -1.236998,-1.1619 -1.799999,-2.02552 -1.25,-1.91992 3.827402,0.735 4.759207,-0.0556 4.191407,-3.55469 -0.3133,-1.9306 -1.27216,-4.21366 -2.13086,-5.07226 -2.6954,-2.6955 -1.968465,-4.44835 1.552735,-3.74415 2.8211,0.56419 3.021387,0.44381 2.117187,-1.27539 -0.549,-1.0438 -1.315925,-3.81093 -1.703125,-6.14843 -0.3872,-2.3375 -1.226054,-4.26516 -1.865234,-4.28516 -0.6391,-0.0198 0.123612,-1.08745 1.695312,-2.37305 2.1556,-1.7635 2.690941,-2.86044 2.181641,-4.46484 -0.4006,-1.2622 -0.240922,-2.12695 0.392578,-2.12695 0.5871,0 1.082611,-1.4625 1.099609,-3.25 0.0175,-1.7875 0.6925,-4.12381 1.5,-5.19141 1.909001,-2.5239 1.852151,-3.31154 -0.28125,-3.86914 -0.962499,-0.2515 -0.2875,-0.51022 1.5,-0.57422 3.863102,-0.1379 4.244763,-2.08456 1.289063,-6.56836 -1.4189,-2.1526 -1.657159,-3.30103 -0.880859,-4.23633 0.5858,-0.706 0.780393,-2.41477 0.433593,-3.79687 -0.3646,-1.4526 -0.200428,-2.51367 0.388672,-2.51367 0.5605,0 1.019531,-0.5887 1.019531,-1.3086 0,-2.6395 2.576641,-4.95941 4.744141,-4.27148 1.7849,0.56651 2.195649,1.76202 2.792969,8.13672 0.3852,4.1101 1.095378,7.71798 1.580078,8.01758 0.4846,0.2995 0.882812,1.64187 0.882812,2.98437 0,1.3426 0.396913,2.44141 0.882813,2.44141 0.4858,0 1.095769,1.1123 1.355469,2.4707 0.2597,1.3583 0.0842,2.22895 -0.390625,1.93555 -0.4748,-0.2934 -1.538282,0.14179 -2.363281,0.96679 -0.840401,0.8404 -1.0884,1.75508 -0.5625,2.08008 0.516199,0.319 1.227125,0.11488 1.578124,-0.45312 0.351,-0.5679 1.078488,-0.76064 1.617188,-0.42774 0.6259,0.3869 0.588584,1.07636 -0.103516,1.91016 -0.7899,0.9518 -0.637146,2.42063 0.564454,5.42383 1.319999,3.2989 1.402009,4.41267 0.412109,5.60547 -1.0262,1.2365 -0.885745,1.48828 0.828125,1.48828 2.76951,0 3.518964,1.47424 1.572266,3.08984 -1.438202,1.1936 -1.421413,1.37395 0.179687,1.93555 1.3516,0.4741 1.754797,1.69387 1.716797,5.20117 -0.0276,2.5198 -0.386275,5.12466 -0.796875,5.78906 -0.4115,0.6658 -0.138878,1.58372 0.607422,2.04492 1.0958,0.6773 0.9635,1.37178 -0.6875,3.63868 -3.8471,5.2825 -3.954105,5.68652 -1.316407,4.89062 1.3235,-0.3993 3.664779,-0.91473 5.205079,-1.14453 3.411,-0.509 2.687618,1.22873 -1.113282,2.67383 -1.5993,0.6081 -2.18044,1.2672 -1.49414,1.6914 1.3144,0.8123 0.853275,10.82374 -0.578125,12.55664 -0.5145,0.6229 -1.238375,2.75842 -1.609375,4.74414 -0.529,2.83139 -0.323875,3.74448 0.953125,4.23438 1.3038,0.5004 1.410656,1.03207 0.535156,2.66797 -0.6013,1.1236 -1.478119,1.80477 -1.949219,1.51367 -0.4711,-0.2912 -0.620831,0.37392 -0.332031,1.47852 0.2889,1.1046 -0.0327,3.35525 -0.714844,5.00195 -0.9317,2.2492 -0.956118,3.33529 -0.09961,4.36719 0.891,1.0736 0.473697,2.08682 -1.908203,4.63672 -3.3163,3.5505 -3.275332,5.46307 0.05273,2.45117 1.7526,-1.5861 1.603122,-0.85643 -1.017578,4.98437 -3.1802,7.0882 -3.374531,8.76125 -0.707031,6.09375 0.8656,-0.8656 1.811965,-1.13961 2.134765,-0.61719 0.319,0.51621 0.123454,1.22091 -0.435546,1.56641 -1.174701,0.726 -1.379025,2.56643 -0.265626,2.39063 0.412502,-0.066 1.875,-0.0507 3.25,0.0312 2.184202,0.13 2.279919,0.27565 0.761719,1.16015 -3.2462,1.8912 -3.974468,4.61598 -2.167969,8.10938 1.486801,2.8752 1.502357,3.51146 0.160157,6.25976 -0.8216,1.6824 -2.015527,4.1836 -2.654297,5.5586 -0.63883,1.375 -1.90433,3.67834 -2.8125,5.11914 -1.3712,2.1755 -1.456094,3.1928 -0.496094,6 l 1.15625,3.38086 -0.294922,-3.20508 c -0.2033,-2.2148 0.424044,-4.04045 2.027344,-5.90625 1.2761,-1.4851 2.320312,-3.69486 2.320312,-4.91016 0,-1.2152 0.900001,-3.35355 2,-4.75195 1.100002,-1.3985 2,-3.03407 2,-3.63477 0,-0.6008 0.450002,-1.09179 1,-1.09179 0.55,0 1.000001,-0.9261 1,-2.0586 0,-1.1325 0.407651,-1.8082 0.90625,-1.5 0.4987,0.3082 0.654857,-0.39962 0.347657,-1.57422 -0.5389,-2.0609 -0.606205,-2.04439 -1.941407,0.50391 -1.128698,2.1542 -1.632474,2.40977 -2.734374,1.38477 -1.128501,-1.0497 -1.036107,-1.69721 0.558593,-3.94141 1.0497,-1.4774 2.767007,-2.62197 3.816407,-2.54297 1.049498,0.0791 1.687868,0.5008 1.417968,0.9375 -0.5422,0.8774 5.468863,6.72325 7.101563,6.90625 0.565,0.063 1.7179,0.0508 2.5625,-0.0273 0.844598,-0.0779 1.564608,0.65766 1.599608,1.63476 0.0354,0.9771 0.42533,3.08851 0.86523,4.69141 0.6782,2.4716 0.54734,2.81815 -0.85156,2.28125 -2.824194,-1.0837 -1.797876,0.69366 1.82422,3.16016 1.9026,1.2957 3.73025,3.20744 4.06055,4.24804 0.3303,1.0406 1.6949,2.16606 3.0332,2.50196 2.9602,0.743 3.10917,1.96204 0.41797,3.40234 -1.5381,0.8231 -1.9518,0.77769 -1.75,-0.19141 0.1454,-0.698 -0.78095,-1.42874 -2.06055,-1.62304 -1.2795,-0.1943 -2.13424,-0.87964 -1.89844,-1.52344 0.2359,-0.6437 -0.80384,-2.17443 -2.31054,-3.40234 L 99.857422,345 l -2.710938,2.13281 c -2.2013,1.7315 -2.870593,1.87492 -3.558593,0.76172 -1.4243,-2.3046 -2.107205,-0.35659 -0.845703,2.41211 0.928299,2.0374 0.908924,2.93206 -0.08594,4.13086 -1.8764,2.2609 -2.482844,1.9211 -3.964844,-2.2207 -1.8469,-5.1618 -3.137656,-5.64973 -5.347656,-2.01563 -1.4779,2.4301 -1.738472,4.09494 -1.201172,7.67774 0.6786,4.525 0.6645,4.55472 -1.3125,2.76562 -1.1666,-1.0558 -2.251969,-1.40002 -2.605469,-0.82812 -0.333,0.5388 -0.03861,1.20772 0.652344,1.48632 0.7851,0.3165 0.624519,0.53499 -0.425781,0.58399 -0.9242,0.0434 -1.876234,-0.70742 -2.115234,-1.66992 -0.239402,-0.9625 -0.277376,-0.49494 -0.08594,1.03906 0.463,3.7123 3.423209,7.64069 5.787109,7.67969 1.8471,0.0305 1.848557,-0.0302 0.08008,-1.98438 -1.7238,-1.9051 -1.728801,-2.08575 -0.09375,-3.28125 1.0515,-0.7689 1.742765,-2.62597 1.759765,-4.73437 0.0374,-4.5503 0.739891,-6.96875 2.025391,-6.96875 0.6119,0 0.781909,1.03236 0.412109,2.50586 -0.4379,1.7445 -0.243675,2.4287 0.640625,2.25 0.9302,-0.1881 1.288891,1.69393 1.337891,7.02343 0.0493,5.3903 0.498969,7.71382 1.730469,8.94532 1.551198,1.5512 1.634187,1.51577 1.242187,-0.51953 -0.2312,-1.20041 0.260797,-2.86236 1.091797,-3.69336 0.83101,-0.831 1.995944,-4.44305 2.589844,-8.02735 0.594,-3.5844 1.245165,-6.35249 1.447265,-6.15039 0.8788,0.8787 2.931466,10.53722 2.134766,10.04492 -0.4861,-0.3004 -0.592481,0.60813 -0.238281,2.01953 0.3543,1.4114 0.178528,3.89634 -0.388672,5.52344 l 0.0039,0.002 c -0.8375,2.40229 -0.768925,2.85673 0.359375,2.42383 0.7641,-0.2932 1.661141,-1.39025 1.994144,-2.43945 0.333,-1.0491 1.02411,-1.9082 1.5371,-1.9082 0.51291,0 0.9336,-1.30138 0.9336,-2.89258 0,-1.6007 0.64541,-3.14037 1.44531,-3.44727 1.0352,-0.3973 1.28863,-1.52767 0.89063,-3.98047 -0.3326,-2.0495 -0.10268,-3.7067 0.57422,-4.125 1.56059,-0.9645 4.03601,5.27323 3.40429,8.57813 -0.9074,4.7466 1.40718,3.94801 2.60938,-0.90039 0.6453,-2.6025 1.60928,-6.13692 2.14257,-7.85352 1.13671,-3.6586 0.43589,-6.08526 -1.97851,-6.85156 -2.3347,-0.741 -5.88908,-5.70855 -7.64649,-10.68945 -0.7933,-2.2486 -1.4414,-4.21474 -1.4414,-4.36914 0,-0.1543 1.0125,-0.02 2.25,0.29883 2.0163,0.51949 2.10532,0.40215 0.85742,-1.11915 -1.7758,-2.1648 -0.86106,-3.12241 1.68164,-1.76171 1.7454,0.9342 2.02372,0.65507 2.54492,-2.55664 0.5739,-3.53601 -1.25123,-8.07896 -2.67382,-6.65626 -0.36321,0.3631 -0.66016,-0.0934 -0.66016,-1.01367 0,-0.9203 1.12164,-2.65045 2.49414,-3.84375 2.3373,-2.0323 2.3915,-2.28408 0.8457,-3.99218 -1.4732,-1.6279 -1.48818,-2.01212 -0.14648,-3.57422 2.0163,-2.3476 2.87156,-4.8731 3.47656,-10.25 0.2785,-2.475 1.14187,-4.85893 1.91797,-5.29883 0.7762,-0.4398 1.41211,-1.579 1.41211,-2.5293 0,-0.9503 0.72397,-2.76129 1.60937,-4.02539 1.0328,-1.4693 1.40211,-3.33909 1.03321,-5.18359 -0.3174,-1.587 -0.13465,-3.15984 0.40625,-3.49414 0.541,-0.3343 0.73258,-1.01337 0.42578,-1.50977 -0.3068,-0.4965 0.16598,-2.00702 1.05078,-3.35742 1.1969,-1.8267 1.39403,-3.3069 0.76953,-5.7793 -0.9878,-3.9107 -0.55831,-8.82226 0.77148,-8.82226 1.98582,0 0.8064,-1.81466 -1.5664,-2.41016 -3.1007,-0.7782 -3.1878,-1.95234 -0.25,-3.36914 1.7368,-0.8376 1.85986,-1.10034 0.53906,-1.15234 -2.0926,-0.0828 -5.78906,-3.88685 -5.78906,-5.95704 0,-1.086 0.30488,-1.20693 1.08398,-0.42773 0.5963,0.5963 1.9463,0.85949 3,0.58399 2.6562,-0.69471 2.66798,-6.78111 0.0156,-8.4375 -1.0452,-0.65271 -1.67409,-1.77846 -1.39649,-2.50196 0.2869,-0.7477 -0.51111,-1.71243 -1.84961,-2.23633 -2.3476,-0.9188 -2.34635,-0.92617 0.71485,-2.04297 2.9509,-1.0766 3.05796,-1.31958 2.75586,-6.27148 -0.1729,-2.8337 -0.87766,-5.51072 -1.56836,-5.94922 -0.9759,-0.6196 -0.95117,-0.8005 0.11523,-0.8125 1.0641,-0.0118 1.11159,-0.33037 0.20899,-1.41797 -0.8929,-1.0758 -0.86879,-1.50207 0.10351,-1.82617 0.7435,-0.2478 1.16729,-1.73567 1.02539,-3.59766 -0.1331,-1.74729 0.24239,-3.17382 0.83399,-3.17382 0.5912,0 0.79081,-0.45663 0.44531,-1.01563 -0.3455,-0.559 -1.1041,-0.72183 -1.6875,-0.36133 -0.6101,0.3773 -0.8621,0.0653 -0.5918,-0.73437 0.7197,-2.1299 -6.19158,-15.30647 -7.39648,-14.10156 -1.1435,1.14353 0.61931,5.21289 2.25781,5.21289 0.6367,0 0.60301,0.73901 -0.0918,2.03711 -0.5998,1.1208 -0.81135,2.9208 -0.46875,4 0.7019,2.2117 -1.34738,2.65565 -4.49218,0.97265 -1.4265,-0.7635 -1.82972,-2.08419 -1.76172,-5.77929 0.1119,-6.10623 -1.26646,-8.72243 -4.19336,-7.95704 -2.1392,0.55943 -2.13426,0.52088 0.21484,-1.65625 1.3222,-1.22535 2.897,-3.1022 3.5,-4.17187 0.8785,-1.55821 1.34808,-1.6968 2.35938,-0.69531 2.1616,2.14058 4.09566,1.54368 3.24023,-1 -0.4161,-1.2375 -0.81853,-3.27822 -0.89453,-4.53516 -0.1256,-2.06885 -4.464,-6.42773 -4.5,-4.52148 -0.009,0.44368 -0.45127,0.13164 -0.98437,-0.69336 -0.6463,-1 -0.97438,-1.08333 -0.98438,-0.25 -0.008,0.6875 -0.80312,1.24237 -1.76562,1.23437 -1.3633,-0.0119 -1.44948,-0.20531 -0.39258,-0.875 0.9907,-0.6277 1.04467,-1.05287 0.20117,-1.57422 -1.6325,-1.00891 0.63232,-3.59183 2.51562,-2.86914 1.0174,0.39041 1.45997,-0.27154 1.54297,-2.30859 0.0683,-1.68203 0.30347,-2.13946 0.57227,-1.11133 0.6941,2.65461 4.51018,0.30443 4.11328,-2.5332 -0.2142,-1.53211 0.49707,-2.54638 2.44727,-3.49024 3.1923,-1.54507 3.35186,-2.37631 1.10546,-5.80468 l -1.64648,-2.51172 -2.85352,2.73437 c -1.5697,1.5039 -2.85546,2.21741 -2.85546,1.58594 0,-1.19669 3.88516,-5.22656 5.03906,-5.22656 0.3642,0 1.968,0.45505 3.5625,1.01172 2.8123,0.98172 2.89844,1.215 2.89844,7.75 0,3.70579 -0.36359,7.30078 -0.8086,7.98828 -0.52508,0.81144 -0.26198,1.25 0.75,1.25 0.8575,0 1.5586,-0.63949 1.5586,-1.41992 0,-1.7845 3.244,-7.56622 4.25,-7.57422 0.4125,-0.004 0.75,-1.10473 0.75,-2.44727 0,-1.34254 0.45223,-2.71961 1.0039,-3.06055 0.5934,-0.36701 0.84935,0.32327 0.62695,1.69141 -0.20659,1.27098 0.0181,3.06765 0.49805,3.99414 0.5142,0.99245 0.46175,2.76604 -0.12695,4.31445 -0.7232,1.90221 -0.63579,3.32135 0.3164,5.13868 1.15911,2.21222 1.46776,2.32627 2.59766,0.96484 1.4928,-1.79871 3.09519,-7.40231 3.7461,-13.10156 0.33968,-2.97455 0.1883,-3.61545 -0.5879,-2.5 -0.5741,0.825 -1.04859,0.99053 -1.05859,0.36718 -0.008,-0.62335 -0.91723,-1.36995 -2.01953,-1.6582 -1.337,-0.34962 -1.80018,-1.0548 -1.39258,-2.11719 0.7702,-2.00703 2.28286,-2.05243 3.03516,-0.0918 0.3166,0.825 1.38946,1.5 2.38476,1.5 2.3316,0 2.88824,1.77387 1.61524,5.14648 -0.7342,1.94517 -0.63891,3.81942 0.34179,6.79102 1.314,3.98165 1.2685,4.19422 -1.5,7.08398 -1.9008,1.98399 -2.36417,2.97852 -1.38867,2.97852 2.7811,0 6.97325,-6.68443 8.40235,-13.39453 l 0.61718,-2.89258 1.61719,2.30859 c 1.4849,2.12604 1.4852,2.5351 0,5.12305 -0.9634,1.6785 -1.22414,3.05047 -0.64844,3.40625 1.5528,0.95969 4.72414,-7.53837 5.24414,-14.05078 0.3524,-4.41424 0.0507,-6.72681 -1.14062,-8.75 -0.8905,-1.5125 -1.91655,-2.75 -2.28125,-2.75 -0.3647,0 -1.24563,-1.40539 -1.95703,-3.12305 -0.7236,-1.74684 -2.6496,-3.76855 -4.3711,-4.58789 -7.2703,-3.46041 -7.67574,-3.77993 -7.18554,-5.66602 0.2683,-1.0325 -0.17213,-2.88447 -0.97852,-4.11523 -1.08831,-1.66091 -1.21297,-2.90399 -0.48437,-4.82031 0.8258,-2.17187 0.66999,-2.6792 -0.97461,-3.20118 -2.3376,-0.7419 -2.47795,-2.29356 -0.46875,-5.1621 1.297,-1.8523 1.30092,-2.19296 0.0273,-2.68164 -0.8021,-0.30778 -2.03373,0.22854 -2.73633,1.1914 -1.6177,2.21712 -5.4282,2.51585 -6.20703,0.48633 -0.41588,-1.08377 -0.14343,-1.37021 0.91797,-0.96289 0.8313,0.31898 1.51172,0.14406 1.51172,-0.38867 0,-0.53274 0.69086,-0.96875 1.53516,-0.96875 0.8444,0 2.59306,-0.69274 3.88476,-1.53907 1.2917,-0.84633 2.90522,-1.40883 3.58789,-1.25 0.68282,0.15883 1.41506,-0.17511 1.62695,-0.74218 0.212,-0.56707 -0.85679,-1.12738 -2.375,-1.2461 -1.51819,-0.11872 -4.02657,-0.73533 -5.57617,-1.36914 -2.1301,-0.87122 -2.4961,-1.37968 -1.5,-2.08203 0.9056,-0.63858 0.47299,-0.793635 -1.38281,-0.49805 -2.6619,0.42398 -4.87776,-1.747794 -2.56836,-2.517574 0.637,-0.21233 0.78103,-0.926003 0.33203,-1.652344 -1.2651,-2.047049 -2.90755,0.39486 -2.18945,3.25586 0.346,1.378618 1.48023,2.777548 2.51953,3.107418 1.0394,0.32987 2.1214,1.48462 2.4043,2.56641 0.5556,2.12474 -0.86073,2.78024 -1.54883,0.7168 -0.2396,-0.71857 -2.1384,-1.2625 -4.4668,-1.2793 -3.1259,-0.0225 -3.92349,0.30027 -3.49609,1.41406 0.3575,0.93155 0.13445,1.18541 -0.62695,0.71485 -0.6487,-0.40097 -2.36857,0.20617 -3.82227,1.34961 -1.4536,1.14344 -2.84279,1.87788 -3.08789,1.63281 -0.7444,-0.74448 3.1309,-5.49216 5,-6.125 2.1519,-0.72862 2.31125,-2.45703 0.22656,-2.45703 -1.33341,0 -1.31886,-0.31131 0.11524,-2.500003 0.901,-1.375 2.26163,-2.5 3.02343,-2.5 0.7617,0 1.44077,-0.45 1.50977,-1 0.0687,-0.55 0.181,-1.384026 0.25,-1.853516 0.0687,-0.46949 1.00879,-2.029917 2.08789,-3.466797 2.1354,-2.84356 4.1386,-1.67318 2.4707,1.44336 -0.6904,1.29007 -0.26579,2.51539 1.66211,4.80664 1.4232,1.69132 2.96398,2.842091 3.42578,2.556641 0.4619,-0.28545 1.12752,-0.05427 1.47852,0.513672 0.351,0.56794 1.07849,0.760674 1.61719,0.427734 0.6165,-0.38097 0.54559,-1.129568 -0.19141,-2.017578 -0.6441,-0.77603 -0.78279,-1.410156 -0.30859,-1.410156 0.4742,0 -0.37964,-1.152267 -1.89844,-2.560547 -1.5187,-1.40829 -2.50104,-2.98329 -2.18164,-3.5 0.3193,-0.51672 0.0761,-0.939453 -0.54102,-0.939453 -0.617,0 -1.04136,-0.7875 -0.94336,-1.75 0.3097,-3.04505 -0.0199,-4.25 -1.16015,-4.25 -0.6084,0 -0.84785,0.675 -0.53125,1.5 0.4135,1.07758 -0.10299,1.5 -1.83399,1.5 -1.3253,0 -2.68744,0.45 -3.02734,1 -0.34,0.55 -1.11019,1 -1.71289,1 -0.6241,0 -0.43174,-0.75352 0.44726,-1.75 1.4484,-1.64197 3.37824,-7.84167 2.95704,-9.5 -0.3663,-1.44196 2.87696,-0.73636 3.44726,0.75 0.3166,0.825 1.47778,1.5 2.58008,1.5 1.7474,0 1.91951,-0.446175 1.34961,-3.484375 -0.5413,-2.88501 -0.38843,-3.384591 0.88867,-2.894531 0.8483,0.32555 1.54297,0.09517 1.54297,-0.513672 0,-0.60885 -0.9,-1.107422 -2,-1.107422 -2.1417,0 -2.8439,-1.945875 -0.75,-2.078125 0.9779,-0.06175 0.97285,-0.191767 -0.0215,-0.591797 -0.699,-0.28127 -1.95607,-1.834835 -2.79297,-3.453125 -0.8368,-1.6183 -1.95192,-2.677003 -2.47852,-2.351562 -0.5266,0.32544 -0.95703,-0.533204 -0.95703,-1.908204 0,-1.375 -0.45,-2.777267 -1,-3.117187 -0.55,-0.33992 -1,-1.066502 -1,-1.615235 0,-0.548726 1.00026,-0.297556 2.22266,0.558594 3.1659,2.217501 4.14633,1.925624 1.71093,-0.509765 -1.6655,-1.66547 -1.83086,-2.35131 -0.85156,-3.53125 1.7278,-2.08186 -1.85718,-4.818953 -4.02148,-3.070313 -1.1216,0.9062 -1.27636,0.888367 -0.69336,-0.08203 0.413,-0.6875 0.2739,-1.25 -0.3086,-1.25 -0.5824,0 -1.05859,0.9 -1.05859,2 0,1.1 -0.45,2 -1,2 l -1.75,0 c -0.4125,0 -0.75,-0.485748 -0.75,-1.080078 0,-0.59434 -0.83537,-1.69157 -1.85547,-2.4375 -1.6895,-1.23536 -1.72524,-1.615718 -0.40234,-4.267578 1.2236,-2.45285 1.24087,-3.201177 0.10547,-4.753907 -0.7412,-1.01363 -1.34766,-1.521193 -1.34766,-1.126953 0,0.39425 -1.35,0.01927 -3,-0.833984 -1.9573,-1.01219 -3.00563,-2.324131 -3.01563,-3.775391 -0.0191,-2.77817 -1.616285,-5.424645 -2.650385,-4.390625 -0.4264,0.42648 -0.171441,1.148249 0.568359,1.605469 1.0964,0.6776 1.000156,1.437064 -0.527344,4.101562 -1.7102,2.983131 -5.970953,7.958985 -6.814453,7.958985 -0.9807,0 0.118953,-5.045591 1.189453,-5.457031 1.6959,-0.6518 1.588269,-2.542969 -0.144531,-2.542969 -0.7668,0 -1.459062,-1.0125 -1.539062,-2.25 -0.8187,-12.619083 -0.8195,-15.715424 0,-15.208985 0.5134,0.317292 0.933593,-0.047 0.933593,-0.808593 0,-1.75804 3.6155,-5.065649 7.5,-6.8613284 3.6607,-1.692201 4.72393,-6.5034266 1.89463,-8.5723066 C 99.919892,0.45705398 98.980913,0.0329235 98.439453,0.0078125 Z M 67.84375,1.1992188 c -0.28506,0.07098 -0.484147,0.5048486 -0.748047,1.3378906 -1.2638,3.989092 -3.3815,6.9375331 -5.1875,7.2207031 -1.0277,0.16112 -2.372428,1.6236215 -2.986328,3.2499995 -0.6139,1.62638 -0.749934,2.957032 -0.302734,2.957032 1.0952,0 8.013671,-6.9725121 8.013671,-8.0761721 0,-0.48139 1.176182,-0.4272494 2.613282,0.1191406 2.4989,0.95009 2.582794,0.8719694 1.933594,-1.7753906 C 70.806387,4.7099119 69.872116,2.8222604 69.103516,2.0371094 68.499566,1.4201554 68.12882,1.1282407 67.84375,1.1992188 Z m 31.558594,1.765625 c 1.822096,0 2.489356,1.9813387 1.193356,3.5429687 -1.287194,1.55092 -5.962887,2.0303281 -5.962888,0.6113281 0,-1.17573 3.419832,-4.1542969 4.769532,-4.1542968 z M 61.642578,18.230469 c -0.5264,-0.07663 -1.042519,0.35725 -2.011719,1.234375 -2.773,2.50955 -2.540247,4.382778 0.501953,4.048828 2.041801,-0.22413 2.500001,0.160496 2.5,2.099609 0,2.20831 0.277522,2.330712 3.982422,1.738281 3.1391,-0.501958 4.115716,-0.2967 4.603516,0.97461 0.5247,1.36738 1.060631,1.197753 3.519531,-1.123047 1.5956,-1.50596 3.350338,-2.794581 3.898438,-2.863281 0.5481,-0.06875 1.446095,-0.1813 1.996093,-0.25 1.522401,-0.1903 1.191844,-2.115167 -0.472656,-2.753906 -1.7649,-0.677231 -7.513593,1.698464 -7.558594,3.123046 -0.0175,0.55324 -0.656368,0.182585 -1.417968,-0.822265 -0.7616,-1.00484 -2.28296,-1.67984 -3.38086,-1.5 -1.1657,0.19097 -2.864384,-0.672172 -4.083984,-2.076172 -1.0125,-1.16561 -1.549772,-1.753447 -2.076172,-1.830078 z M 48.167969,33.361328 c 0.10158,-0.02414 0.194504,-7.96e-4 0.271484,0.07617 0.3079,0.30789 -1.94e-4,1.114629 -0.683594,1.792969 -0.9876,0.98026 -1.101293,0.866606 -0.558593,-0.558594 0.2817,-0.739665 0.665953,-1.238115 0.970703,-1.310547 z m 26.242187,1.195313 c 0.82769,-0.04496 1.222656,0.284968 1.222656,1.001953 0,0.77351 -0.112498,1.374637 -0.25,1.335937 -0.1375,-0.03865 -1.126765,-0.413091 -2.197265,-0.832031 -1.8579,-0.72704 -1.8465,-0.787697 0.25,-1.335938 0.37325,-0.09761 0.698709,-0.154934 0.974609,-0.169921 z m -18.93164,0.527343 c 0.0565,0.03461 -0.0921,0.48824 -0.41211,1.38086 -1.6739,4.66955 -1.605619,7.464442 0.238282,9.808594 1.4375,1.82746 2.389006,2.212604 4.003906,1.615234 1.1653,-0.43107 2.41755,-1.264976 2.78125,-1.853516 0.3638,-0.58855 1.16199,-1.070312 1.77539,-1.070312 0.6134,0 0.170372,1.0125 -0.986328,2.25 -2.9532,3.15953 -3.383593,8.070128 -0.746094,8.517578 1.672101,0.28366 1.754101,0.158494 0.5,-0.759766 -1.226799,-0.89837 -1.044598,-1.068436 1,-0.941406 1.375,0.08539 2.725002,0.04212 3,-0.0957 0.275001,-0.13781 2.14768,-0.346924 4.16211,-0.464844 2.89967,-0.16974 3.542837,0.0984 3.085937,1.289063 -0.4605,1.20014 -0.0292,1.366367 2.13086,0.824218 2.6947,-0.676332 2.698828,-0.66865 1.048828,1.84961 -0.9117,1.39135 -2.393669,2.595528 -3.292969,2.673828 l -0.0039,0 c -0.89918,0.07833 -2.988931,0.258704 -4.644531,0.402344 -1.6556,0.14363 -4.262949,-0.393653 -5.792969,-1.195313 -1.5301,-0.80168 -3.663435,-1.177708 -4.740234,-0.835937 -1.833602,0.581969 -2.497104,-0.36344 -2.033204,-2.892578 0.0886,-0.482771 -0.816318,-0.621194 -2.011718,-0.308594 -2.2412,0.58609 -4.91211,-1.239802 -4.91211,-3.357422 0,-0.84091 0.6552,-0.766787 2.25,0.251953 2.4316,1.55337 6.846488,1.003456 7.492188,-0.933594 0.2801,-0.84014 -0.438316,-0.935081 -2.541016,-0.332031 -3.7,1.06115 -4.998581,0.252916 -6.175781,-3.851562 -0.7738,-2.698271 -0.681969,-3.173971 0.519531,-2.712891 1.6921,0.64929 1.963253,-2.055773 0.439453,-4.376953 -0.8752,-1.33333 -1.09355,-1.33333 -1.96875,0 -1.001,1.52486 -1.152831,2.43301 -1.582031,9.46289 -0.2428,3.97548 -3.582019,8.180916 -5.537109,6.972657 -1.1636,-0.72145 -1.15917,-3.435547 0.0098,-3.435547 0.4962,0 0.353341,-1.9125 -0.318359,-4.25 -1.2744,-4.43599 -1.075956,-7.75 0.464844,-7.75 0.5125,0 0.473106,-1.129965 -0.0918,-2.615235 -0.8418,-2.214299 -0.750231,-2.520209 0.605468,-2 0.880201,0.33778 1.777741,0.615235 1.994141,0.615235 0.2164,0 -0.0457,1.153643 -0.582031,2.564453 -1.29299,3.4009 -1.282881,3.435547 1.005859,3.435547 1.7226,0 3.285769,-2.771139 3.480469,-6.167969 0.0888,-1.54868 1.539063,-2.01982 1.539062,-0.5 0,2.19232 2.596791,2.139817 4.025391,-0.08203 0.50215,-0.781045 0.763803,-1.165468 0.820313,-1.13086 z m 28.501953,0.320313 c 1.22031,-0.04402 2.619594,2.150581 3.246093,5.283203 0.355301,1.77646 0.152413,3.316434 -0.492187,3.714844 -0.6212,0.38392 -1.101562,9.12e-4 -1.101563,-0.878906 0,-0.857462 -0.43595,-1.558594 -0.96875,-1.558594 -0.532698,0 -0.707971,-0.681672 -0.388671,-1.513672 0.3193,-0.83201 0.05809,-2.141126 -0.580079,-2.910156 -0.686499,-0.8271 -0.777909,-1.634653 -0.224609,-1.976563 0.16418,-0.101479 0.335436,-0.153867 0.509766,-0.160156 z m -49.056641,2.0625 c -1.3658,-0.10062 -1.917637,0.307455 -1.585937,1.171875 0.6268,1.63324 4.613612,1.784387 4.070312,0.154297 -0.2148,-0.64423 -1.332375,-1.241272 -2.484375,-1.326172 z m 38.38086,0.660156 c 0.20824,-0.0074 0.350239,0.281941 0.380859,0.837891 0.6035,10.91292 0.590094,11.076829 -0.816406,10.537109 -0.7794,-0.29909 -1.938272,-0.218692 -2.576172,0.179688 -1.9604,1.22433 -4.836994,1.37698 -4.121094,0.21875 0.3634,-0.58813 0.660156,-2.561699 0.660156,-4.386719 0,-2.57975 0.590171,-3.621311 2.650391,-4.681641 1.45749,-0.75013 2.980665,-1.816307 3.384766,-2.367187 0.16339,-0.222735 0.312558,-0.33345 0.4375,-0.337891 z m -12.333985,3.21875 c 0.27027,0.0068 0.299078,0.398967 0.04297,1.066406 -0.6648,1.732421 -1.380859,2.049757 -1.38086,0.611329 0,-0.51754 0.444582,-1.216715 0.988282,-1.552735 0.1417,-0.08759 0.259509,-0.127269 0.349609,-0.125 z m -4.136719,0.03711 c 0.45459,-0.08812 0.798829,0.530583 0.798828,1.521485 0,1.13246 -0.449999,2.060547 -1,2.060547 -0.549998,0 -1,-0.648868 -1,-1.441406 0,-0.792541 0.450001,-1.718674 1,-2.058594 0.0688,-0.04249 0.136232,-0.06944 0.201172,-0.08203 z m 24.673828,2.777344 c 1.177161,-0.06746 3.00516,1.235132 3.38086,2.671875 0.44211,1.69042 -2.312703,2.741995 -3.658203,1.396485 -0.9949,-0.99492 -0.668555,-2.425572 0.402343,-1.763672 0.55,0.33992 1,0.141053 1,-0.441406 0,-0.58246 -0.524415,-1.058594 -1.166015,-1.058594 -0.6422,0 -0.932431,-0.235488 -0.644531,-0.523438 0.17666,-0.176651 0.413887,-0.265683 0.685546,-0.28125 z m 11.759766,1.140625 c 0.22236,0.04629 0.365234,0.235547 0.365234,0.544922 0,0.55 -0.45,1.279221 -1,1.619141 -0.549998,0.33992 -1,0.167187 -1,-0.382813 0,-0.55 0.450002,-1.277267 1,-1.617187 0.137502,-0.08498 0.269142,-0.139018 0.388672,-0.16211 0.0896,-0.01732 0.171974,-0.01728 0.246094,-0.002 z M 64.681641,47.46875 c 0.4744,-0.0281 0.571748,0.320485 0.292968,1.046875 -0.6069,1.58173 -2.341796,1.992309 -2.341797,0.554687 0,-0.49116 0.652219,-1.141435 1.449219,-1.447265 0.242,-0.09292 0.44148,-0.144929 0.59961,-0.154297 z m 12.748047,0.552734 c 0.373979,-0.01344 0.931821,0.271636 1.419921,0.759766 0.6508,0.65083 2.255507,1.183594 3.566407,1.183594 1.4595,0 2.224766,0.4845 1.972656,1.25 -0.524,1.59118 -4.755859,2.267137 -4.75586,0.759765 0,-0.620688 -0.402131,-0.878518 -0.894531,-0.574218 -0.9882,0.61073 -2.476681,-2.398369 -1.613281,-3.261719 0.0743,-0.07428 0.180026,-0.112708 0.304688,-0.117188 z m 14.9375,0.94336 c 1.294899,0 1.398243,0.265888 0.464843,1.199218 -0.66,0.66 -1.199219,2.01 -1.199219,3 0,1.204541 -0.744298,1.795357 -2.25,1.785157 -1.819399,-0.01239 -1.962898,-0.200505 -0.75,-0.984375 0.825002,-0.53316 1.146644,-0.976375 0.714844,-0.984375 -1.5863,-0.03093 1.410031,-4.015625 3.019532,-4.015625 z m -43.734376,6 c 0.55,0 1,0.421913 1,0.939453 0,0.51754 -0.449999,1.220627 -1,1.560547 -0.549998,0.33992 -1,-0.08395 -1,-0.941406 0,-0.857461 0.450001,-1.558594 1,-1.558594 z m 33.75,0.0293 c 1.325801,-0.01792 2.25,0.574093 2.25,1.439453 0,0.84099 0.592919,1.240146 1.386719,0.935547 1.8336,-0.7036 1.625169,4.672058 -0.269531,6.955078 -0.8889,1.07103 -0.972934,1.640625 -0.240234,1.640625 1.794,0 1.305547,3.662162 -1.126954,8.445312 -1.834799,3.60797 -2.646343,4.32999 -4.402343,3.90625 -1.4257,-0.34404 -2.514603,0.100054 -3.220703,1.314453 -0.5865,1.008783 -1.078704,1.440778 -1.095704,0.960938 -0.0167,-0.47985 -0.669918,-0.344106 -1.449218,0.302734 -0.7794,0.64684 -3.1419,1.040037 -5.25,0.873047 -2.6561,-0.2104 -3.75523,0.08107 -3.582032,0.947266 0.137502,0.6875 -0.424998,1.25 -1.25,1.25 -0.825,0 -1.5,-0.505707 -1.5,-1.123047 0,-0.76032 -0.403199,-0.802769 -1.25,-0.130859 -0.883,0.700728 -1.910499,0.306863 -3.5,-1.341797 -2.962499,-3.07283 -2.838599,-3.783818 0.5,-2.867188 3.505001,0.9623 12.4394,1.335699 13.75,0.574219 0.55,-0.31955 1.225002,-0.611084 1.5,-0.646484 2.088702,-0.269312 5,-1.778128 5,-2.591797 0,-0.545401 0.450002,-0.712967 1,-0.373047 0.55,0.33992 1,-0.11008 1,-1 0,-0.88992 0.337501,-1.41047 0.75,-1.15625 0.728601,0.449 1.220616,-3.287438 1.603516,-12.173828 0.1279,-2.96869 -0.291584,-4.60801 -1.333984,-5.21875 -1.2107,-0.70933 -1.061531,-0.897675 0.730468,-0.921875 z m -31.224609,2.09375 c 1.50889,-0.257446 3.038391,3.669514 3.332031,9.341797 0.2983,5.761229 0.69803,6.642935 2.673828,5.884765 0.807302,-0.30983 1.468751,-0.06587 1.46875,0.542969 0,0.60885 0.476094,1.107402 1.058594,1.107422 0.5824,0 0.730125,-0.5625 0.328125,-1.25 -0.402,-0.6875 0.169131,-0.4625 1.269531,0.5 2.5772,2.25435 3.133738,2.202547 3.523438,-0.320313 0.3182,-2.06012 0.329175,-2.058902 2.421875,-0.09766 1.3463,1.26173 2.587925,1.669505 3.453125,1.134766 0.7429,-0.4591 1.709637,-0.612967 2.148438,-0.341797 0.438699,0.27117 0.796874,-0.155869 0.796874,-0.949219 0,-0.79334 1.125,-1.659025 2.5,-1.921875 1.860601,-0.35567 2.5,-0.04923 2.5,1.195312 0,1.16412 -1.443398,2.027297 -4.75,2.841797 -5.859099,1.44325 -9.4393,2.006597 -10.75,1.691407 -4.770398,-1.147261 -9.357378,-2.903325 -9.017578,-3.453125 0.2286,-0.36992 -0.236403,-1.930857 -1.033203,-3.466797 -0.7969,-1.53593 -1.449219,-4.540605 -1.449219,-6.677735 0,-2.13713 -0.476093,-3.884765 -1.058593,-3.884765 -0.5824,0 -0.781305,-0.45 -0.441407,-1 0.33065,-0.535015 0.677181,-0.817543 1.025391,-0.876953 z m -4.259765,2.009765 c 0.395679,-0.09956 0.53328,0.919907 0.07812,2.660156 -0.3173,1.21348 -1.312537,2.199407 -2.210937,2.191407 -1.00475,-0.0094 -1.220647,-0.29805 -0.560547,-0.75 0.59012,-0.40408 1.388138,-1.587685 1.773438,-2.628907 0.35182,-0.95049 0.682521,-1.412918 0.919922,-1.472656 z M 60.84375,62.0918 c 1.15315,-0.05583 2.753562,0.205528 4.789062,0.794922 l 2.5,0.724609 -2.240234,0.740234 c -1.2326,0.407562 -2.761284,0.419888 -3.396484,0.02734 -0.8173,-0.50513 -0.960735,0.06057 -0.490235,1.935547 0.7838,3.12288 -0.372112,3.483373 -2.132812,0.664063 -1.93689,-3.101437 -1.566207,-4.763887 0.970703,-4.886719 z m 17.064453,0.875 c 1.6511,-0.0018 1.667109,0.208547 0.224609,2.998047 -1.956098,3.78281 -2.473484,3.783189 -2.208984,0.002 0.1487,-2.12546 0.725475,-2.999 1.984375,-3 z m -4.716797,0.998047 c 0.8579,0 1.281408,0.45 0.941406,1 -0.339899,0.55 -1.040993,1 -1.558593,1 -0.5175,0 -0.941407,-0.45 -0.941407,-1 0,-0.55 0.701094,-1 1.558594,-1 z m -25.916015,1 c 0.8668,0 1.177959,0.479129 0.755859,1.162109 -0.3953,0.63949 -1.015306,2.55199 -1.378906,4.25 L 45.992188,73.464844 45.507812,70.375 c -0.607599,-3.89047 -0.110321,-5.410156 1.767579,-5.410156 z m -22.181641,1 c 0.8467,0 1.539062,0.675 1.539062,1.5 0,1.82371 -0.149862,1.819444 -1.789062,-0.03906 -1.0653,-1.2079 -1.0219,-1.460937 0.25,-1.460937 z m 94.34766,2 c 1.4506,0 3.72383,3.52342 3.38671,5.25 -0.51089,2.61648 -3.71065,2.110185 -5.03515,-0.796875 -1.5733,-3.45306 -1.46166,-3.944082 0.52734,-2.326172 1.4775,1.20186 1.60555,1.155537 1.03125,-0.376953 -0.3613,-0.9625 -0.32056,-1.75 0.0898,-1.75 z m -70.173832,8.417968 c 0.0529,-0.01042 0.107243,-0.01101 0.164063,0 0.065,0.01259 0.132421,0.03954 0.201171,0.08203 0.55,0.33992 1,1.266053 1,2.058594 0,0.79254 -0.449999,1.441406 -1,1.441406 -0.549998,0 -1,-0.928087 -1,-2.060547 0,-0.86704 0.264336,-1.448547 0.634766,-1.521485 z M 90.996094,87.31055 c 0.0909,0.01377 0.200612,0.167648 0.320312,0.466797 0.2888,0.72187 0.252244,1.583715 -0.08008,1.916015 -0.3323,0.332291 -0.568392,-0.25834 -0.52539,-1.3125 0.03,-0.728093 0.133596,-1.093263 0.285156,-1.070312 z M 31.277344,94.25 c -0.089,0.02974 -0.19676,0.195459 -0.31836,0.498047 -0.2835,0.70599 0.03197,1.94349 0.701172,2.75 1.3989,1.68557 2.972656,1.932847 2.972656,0.466797 0,-0.55 -0.674998,-1 -1.5,-1 -0.825,0 -1.535125,-0.7875 -1.578124,-1.75 -0.031,-0.687544 -0.129144,-1.01441 -0.277344,-0.964844 z m -5.585938,3.882812 c -0.6143,-0.03888 -0.558594,0.67234 -0.558594,2.332028 0,2.65421 0.997491,3.33261 1.837891,1.25 0.3013,-0.74674 0.536983,-0.54544 0.583985,0.5 0.043,0.9625 -0.371876,1.75 -0.921876,1.75 -0.549998,0 -1,0.95376 -1,2.1211 0,1.74824 0.257338,1.90908 1.460938,0.91015 0.8037,-0.66701 1.782481,-2.1852 2.175781,-3.37304 0.7004,-2.11513 0.730453,-2.10663 1.439453,0.34179 l 0.72461,2.5 0.09961,-2.72461 c 0.075,-2.05774 -0.623162,-3.09762 -2.851562,-4.249996 -1.6307,-0.843273 -2.512535,-1.327184 -2.990235,-1.357422 z m 11.408203,3.292968 c -0.1809,-0.0674 -0.308593,0.50781 -0.308593,1.53906 0,1.375 0.226506,1.9375 0.503906,1.25 0.2774,-0.6875 0.2774,-1.8125 0,-2.5 -0.069,-0.17187 -0.135013,-0.2666 -0.195313,-0.28906 z m -29.021484,2.8711 c 0.2206,0.0281 0.45985,0.17273 0.71875,0.43164 0.5851,0.58515 0.4934064,2.71353 -0.2460938,5.65039 -0.9371999,3.72151 -0.9210216,5.21133 0.080078,7.08203 0.701,1.30277 1.0086062,3.04452 0.6914062,3.87109 -0.3172,0.82657 -0.2201031,1.64533 0.2167969,1.81836 0.8194007,0.32455 6.0937507,8.3675 6.0937497,9.29297 0,0.28593 -0.689603,0.52148 -1.533203,0.52148 -0.8435,0 -2.463809,1.575 -3.599609,3.5 -2.0555004,3.48376 -2.9452471,4.088 -4.1855471,2.84766 -0.3581,-0.35812 0.1300844,-1.24241 1.0839844,-1.9668 1.601,-1.21571 1.5638311,-1.32021 -0.4804687,-1.34961 -3.0473,-0.0438 -4.2874844,-2.86585 -4.2714844,-9.71679 0.016,-6.73236 0.8333092,-10.52675 2.0996094,-9.74414 0.4873998,0.30128 0.9256093,0.18324 0.9746093,-0.26172 0.049,-0.44496 0.2538783,-2.95584 0.4550781,-5.58008 0.3412002,-4.44982 0.9463438,-6.51821 1.9023438,-6.39648 z m 83.210937,4.69921 c 1.6356,-0.0247 2.036504,0.42805 1.658204,1.875 -0.2744,1.04915 -1.319666,2.1226 -2.322266,2.38477 -1.0025,0.26217 -1.974103,1.45615 -2.158203,2.6543 -0.2447,1.59217 -0.630094,1.88107 -1.433594,1.06836 -1.7381,-1.75823 1.558459,-7.94173 4.255859,-7.98243 z m -59.6875,2.96875 c -0.532799,0 -0.96875,0.675 -0.96875,1.5 0,0.825 0.176479,1.5 0.392579,1.5 0.2162,0 0.65215,-0.675 0.96875,-1.5 0.3165,-0.825 0.140121,-1.5 -0.392579,-1.5 z m 20.423829,2 c 0.2162,0 0.65215,0.675 0.96875,1.5 0.3165,0.825 0.140121,1.5 -0.392579,1.5 -0.532798,0 -0.96875,-0.675 -0.96875,-1.5 0,-0.825 0.176479,-1.5 0.392579,-1.5 z m -37.052735,0.3125 c -0.2965,0.12628 -0.288967,1.19106 0.01953,3.1875 0.340598,2.2 0.654218,4.9 0.699218,6 0.081,2 0.08109,2 0.900391,0 0.9471,-2.31181 0.238397,-7.53791 -1.220703,-9 -0.166,-0.16637 -0.299538,-0.22959 -0.398438,-0.1875 z m 18.160156,3.6875 c -0.889899,0 -1.339898,0.45 -1,1 0.340002,0.55 0.79,1 1,1 0.210102,0 0.660101,-0.45 1,-1 0.340002,-0.55 -0.109999,-1 -1,-1 z m 15.417969,0.0957 c 0.1967,-0.006 0.434981,0.0168 0.712891,0.0703 1.44401,0.27809 1.869141,1.24737 1.86914,4.26367 0,4.96148 -2.125293,5.92693 -2.308593,1.04883 -0.074,-1.968 -0.42535,-4.04919 -0.78125,-4.625 -0.28875,-0.46717 -0.0823,-0.74067 0.507812,-0.75781 z m 55.355469,1.08398 c 0.1081,-0.008 0.20221,-0.003 0.2832,0.0117 0.53993,0.0993 0.50047,0.72861 0.21485,2.22266 -0.277,1.44925 -0.1063,2.8798 0.3789,3.17968 0.4852,0.29987 0.64251,0.93422 0.34961,1.40821 -0.293,0.47399 -0.10684,1.12531 0.41407,1.44726 0.52079,0.32195 0.73151,1.77825 0.46679,3.23828 -0.56469,3.11391 1.4203,8.55527 2.8086,7.69727 0.5611,-0.34702 0.53943,0.17444 -0.0547,1.26172 -0.5574,1.02004 -1.28604,3.13933 -1.61914,4.70898 -0.4155,1.95849 -1.53275,3.20334 -3.56055,3.96875 -1.6252,0.61343 -2.95508,1.46707 -2.95508,1.89649 0,0.42942 -0.674997,0.78125 -1.499998,0.78125 -0.825,0 -1.499999,0.4797 -1.5,1.0664 0,0.5867 -1.163737,2.59249 -2.585937,4.45703 -1.4221,1.86453 -2.33625,3.79376 -2.03125,4.28711 0.3049,0.49334 -0.599766,1.42199 -2.009766,2.06446 l -2.5625,1.16797 2.175782,-3.52149 c 1.1972,-1.93703 1.690603,-3.52148 1.095703,-3.52148 -0.5949,0 -1.082032,0.53628 -1.082032,1.1914 0,1.89153 -2.933749,-2.497 -2.96875,-4.4414 -0.0175,-0.9625 0.427782,-1.75 0.988282,-1.75 0.5876,0 0.752425,-1.05835 0.390625,-2.5 -0.3866,-1.5404 -0.200478,-2.5 0.482422,-2.5 0.6097,0 1.107421,-1.02492 1.107421,-2.27735 0,-1.25243 1.332338,-3.73636 2.960938,-5.51953 2.71,-2.96701 3.303675,-7.10204 0.796875,-5.55273 -0.979,0.60505 -0.507759,-4.23914 0.869141,-8.92188 0.4038,-1.37325 -0.0841,-1.20986 -2.177735,0.73047 -3.5195,3.26174 -5.043231,2.26333 -2.269531,-1.48828 1.6677,-2.25572 2.696206,-2.78965 4.503906,-2.33594 1.2883,0.32336 2.899678,0.14371 3.580078,-0.40039 0.6803,-0.54411 2.311696,-1.32118 3.624996,-1.72461 0.60924,-0.18716 1.06049,-0.30686 1.38477,-0.33008 l 0,-0.002 z m 18.00586,1.63477 c 0.0763,-0.0268 0.1581,-0.0278 0.24414,0 0.5369,0.17356 0.83586,0.99689 0.66406,1.83008 -0.1717,0.83316 0.40144,2.60478 1.27344,3.93554 1.6123,2.46071 0.50026,3.34272 -2.08594,1.6543 -1.28222,-0.8371 -1.24047,-7.01749 -0.0957,-7.41992 z M 5.3847656,123.96484 c -1.5348,0 0.027003,6.31411 1.9082032,7.7168 0.8985999,0.66987 1.9983593,0.99375 2.4433593,0.71875 1.0298999,-0.63653 6.88e-5,-3.43555 -1.2695312,-3.43555 -0.5233,0 -0.6614407,-0.47083 -0.3066407,-1.04492 0.7237002,-1.17088 -1.2305906,-3.95508 -2.7753906,-3.95508 z m 122.7382844,1.53907 c 0.29114,-0.0558 0.51828,0.38446 0.77734,1.375 0.3616,1.38298 0.0718,2.08593 -0.86133,2.08593 -1.5951,0 -1.76109,-0.89262 -0.52929,-2.83593 0.2412,-0.38049 0.4386,-0.59155 0.61328,-0.625 z m -1.13086,4.78711 c 0.0861,0.001 0.18304,0.12096 0.2832,0.36718 0.2671,0.65661 1.10021,0.95747 1.84961,0.66992 0.9912,-0.38034 1.20294,0.0874 0.77734,1.71485 -0.494,1.88935 -0.26018,2.15179 1.50782,1.68945 1.1513,-0.30107 2.99812,0.0871 4.10351,0.86133 1.10542,0.77426 2.59675,1.28623 3.31445,1.13867 0.93081,-0.19138 1.26497,0.98618 1.16797,4.10742 -0.0955,3.0607 0.15278,3.96215 0.82618,3 0.745,-1.06441 1.0782,-1.09232 1.4707,-0.125 0.279,0.6875 1.3211,1.25 2.31641,1.25 2.29699,0 3.02343,1.9268 3.02343,8.02149 0,2.67256 -0.45,5.13859 -1,5.47851 -0.55,0.33992 -1,-0.30894 -1,-1.4414 0,-1.13246 -0.54117,-2.0586 -1.20117,-2.0586 -0.8871,0 -0.90631,-0.29249 -0.0762,-1.12304 1.2001,-1.20012 -0.18043,-5.65683 -2.20313,-7.11328 -1.5296,-1.10132 -4.72973,-0.91283 -4.01953,0.23632 0.34,0.55 0.12705,1 -0.47265,1 -0.5998,0 -1.30707,-0.56693 -1.57227,-1.25781 -0.318,-0.82871 -2.00865,-1.13386 -4.96875,-0.89844 -3.5954,0.28596 -4.48633,0.0386 -4.48633,-1.24414 0,-0.88038 -0.47609,-1.59961 -1.05859,-1.59961 -0.5824,0 -0.78889,0.43488 -0.45899,0.96875 0.7565,1.224 -3.92249,2.45892 -6.12109,1.61524 -1.3187,-0.50602 -1.41427,-0.35367 -0.48047,0.77148 0.96471,1.16249 0.60313,1.34815 -2.10937,1.08203 -4.4619,-0.43774 -6.76911,0.37071 -6.78711,2.37891 -0.0126,1.38696 -0.1728,1.43203 -0.91602,0.25781 -0.65228,-1.03077 0.52557,-3.06543 4.26367,-7.36328 l 5.16602,-5.93945 5.23828,0.53906 c 5.085,0.52482 7.03292,-0.25759 5.76172,-2.31445 -0.4121,-0.66679 -1.26889,-0.6551 -2.55859,0.0352 -1.335,0.71481 -1.93946,0.71843 -1.93946,0.006 0,-1.71403 0.457,-2.54948 1.25,-2.28515 0.4125,0.1375 0.78513,-0.5375 0.82813,-1.5 0.0271,-0.60156 0.13778,-0.92622 0.28125,-0.92383 l 0,-0.002 z m -25.75,3.12304 c -0.35833,0.006 -0.69784,0.33856 -0.96289,1.0293 -0.309806,0.80729 0.20483,1.91702 1.14453,2.46484 0.9396,0.54783 1.77923,1.00869 1.86523,1.02539 0.086,0.0167 -0.0812,-0.8758 -0.37109,-1.98437 -0.43125,-1.64908 -1.07856,-2.54537 -1.67578,-2.53516 z m 31.37695,4.11914 c -1.32191,0.0901 -2.98633,0.77386 -2.98633,1.54688 0,1.03094 1.19681,1.12937 3.41211,0.2793 0.86679,-0.33266 1.35443,-0.96552 1.08203,-1.40626 -0.15758,-0.25494 -0.51796,-0.38579 -0.96875,-0.41992 -0.16905,-0.0128 -0.35021,-0.0129 -0.53906,0 z m -97.427734,0.43164 c 0.2425,0 0.441406,0.45 0.441406,1 0,0.55 -0.476093,1 -1.058593,1 -0.5824,0 -0.781306,-0.45 -0.441407,-1 0.340002,-0.55 0.815994,-1 1.058594,-1 z m 87.833984,1 c -0.2161,0 -0.39258,0.675 -0.39258,1.5 0,0.825 0.43595,1.5 0.96875,1.5 0.5327,0 0.70908,-0.675 0.39258,-1.5 -0.3166,-0.825 -0.75255,-1.5 -0.96875,-1.5 z m 11.36133,2.4961 c -0.27994,-0.0202 -0.92242,0.43018 -1.54297,1.10351 -0.7092,0.76953 -0.84779,1.40039 -0.30859,1.40039 1.0384,0 2.54034,-1.90333 1.94726,-2.46679 -0.0241,-0.0229 -0.0557,-0.0342 -0.0957,-0.0371 z m -12.25391,1.5039 c -0.825,0 -1.5,0.43601 -1.5,0.96875 0,0.53273 0.675,0.70916 1.5,0.39258 0.825,-0.31659 1.5,-0.75259 1.5,-0.96875 0,-0.21615 -0.675,-0.39258 -1.5,-0.39258 z m 3.91016,4.27735 c 0.1836,-0.009 0.43908,0.17148 0.78906,0.52148 0.9334,0.93333 0.9334,1.46706 0,2.40039 -0.9333,0.93333 -1.19922,0.66745 -1.19922,-1.19922 0,-1.16667 0.10417,-1.70833 0.41016,-1.72265 z m -3.41016,0.72265 c 0.55,0 1,0.63796 1,1.41797 0,0.78002 0.27362,2.13007 0.60742,3 0.3983,1.03799 0.0545,1.58203 -1,1.58203 -1.1189,0 -1.60742,-0.91123 -1.60742,-3 0,-1.65 0.45,-3 1,-3 z m 17.02539,1 c 1.1346,0 1.97213,0.5625 1.86133,1.25 -0.1109,0.6875 0.15169,2.06183 0.58399,3.05469 0.4322,0.99287 0.37715,2.72289 -0.12305,3.84375 -0.892,1.99903 -0.93158,1.99179 -2.05078,-0.30664 -0.6276,-1.28873 -1.41008,-3.5793 -1.73828,-5.0918 -0.5001,-2.30416 -0.26161,-2.75 1.46679,-2.75 z m -36.10351,1.52344 c 0.24366,0.0246 0.49242,0.0814 0.73828,0.17578 0.7373,0.28296 1.33984,1.08901 1.33984,1.79102 0,1.93736 -4.01073,2.6445 -4.70703,0.83008 -0.59106,-1.54049 0.92333,-2.9691 2.62891,-2.79688 z m 20.63672,4.47656 c 0.2425,0 0.4414,0.45 0.4414,1 0,0.55 -0.47609,1 -1.05859,1 -0.5824,0 -0.78131,-0.45 -0.44141,-1 0.34,-0.55 0.816,-1 1.0586,-1 z m -25.812504,1.20899 c 0.37465,-0.0202 0.233235,0.68006 -0.353515,2.20898 -0.3338,0.86999 -1.0088,1.58203 -1.5,1.58203 -1.3832,0 -1.054879,-1.62035 0.607421,-3 0.610571,-0.50673 1.021304,-0.77889 1.246094,-0.79101 z m 32.888674,5.12695 c 0.22236,0.0463 0.36523,0.23555 0.36523,0.54492 0,0.55 -0.45,1.27922 -1,1.61914 -0.55,0.33992 -1,0.16719 -1,-0.38281 0,-0.55 0.45,-1.27727 1,-1.61719 0.1375,-0.085 0.26914,-0.13901 0.38867,-0.16211 0.0896,-0.0173 0.17198,-0.0172 0.2461,-0.002 z m -44.271486,4.00977 c 0.0909,0.0138 0.200612,0.16764 0.320312,0.46679 0.2888,0.72187 0.252244,1.58373 -0.08008,1.91602 -0.3323,0.33229 -0.568392,-0.25833 -0.52539,-1.3125 0.03,-0.72809 0.133596,-1.09326 0.285156,-1.07031 z m 21.695316,3.65429 c -0.5825,0 -1.0586,0.45 -1.0586,1 0,0.55 0.19891,1 0.44141,1 0.2426,0 0.71869,-0.45 1.05859,-1 0.34,-0.55 0.141,-1 -0.4414,-1 z m -1.36329,9.39454 c 0.60277,0.0368 0.99309,0.52164 0.89649,1.17968 -0.1103,0.75204 -0.58584,1.71807 -1.05664,2.14649 -0.4707,0.42842 -0.53232,0.21679 -0.13672,-0.47071 0.4575,-0.795 0.0916,-1.25 -1.00586,-1.25 -1.9288,0 -1.0987,-1.2789 1.0332,-1.59179 0.094,-0.0138 0.18343,-0.0189 0.26953,-0.0137 z m -7.2871,0.85546 c 0.61504,0.0388 1.42891,0.26845 2.44531,0.68946 2.6028,1.07809 2.87615,1.5188 1.90234,3.07812 -0.62539,1.00138 -2.16241,2.01817 -3.41601,2.25781 -1.253608,0.23964 -2.040804,0.0506 -1.750004,-0.41992 0.6867,-1.11108 0.367094,-1.08497 -3.691406,0.31836 -1.8696,0.64645 -3.947187,1.88392 -4.617188,2.75 -1.064898,1.37658 -1.221998,1.29494 -1.25,-0.65429 -0.0233,-1.63319 1.105751,-2.80655 4.21875,-4.38477 2.337501,-1.18506 4.546504,-2.61581 4.908204,-3.17969 0.21995,-0.3429 0.634956,-0.49394 1.250004,-0.45508 z M 48.625,187.35156 c 1.15529,-0.006 2.007812,0.72631 2.007812,2.11719 0,1.17909 0.432902,1.33569 1.75,0.63672 1.209001,-0.64157 2.148263,-0.49784 3.039063,0.46484 1.0606,1.14626 1.0163,1.39453 -0.25,1.39453 -0.8467,0 -1.539063,0.45 -1.539063,1 0,0.55 -0.77112,1 -1.71289,1 -0.94183,0 -2.706075,1.2375 -3.921875,2.75 -2.0735,2.5795 -2.25875,2.6283 -2.96875,0.8086 -0.44,-1.1278 -0.32215,-2.08396 0.28125,-2.28516 0.571,-0.1903 1.889187,-0.98457 2.929687,-1.76367 1.7811,-1.33356 1.699557,-1.45612 -1.402343,-2.09766 l -3.294922,-0.68164 2.097656,-1.95312 c 1.00463,-0.93594 2.085825,-1.38587 2.984375,-1.39063 z m 48.423828,3.06641 c 0.23176,0.047 0.273194,0.23972 0.07617,0.55859 -0.3361,0.5437 -1.033181,0.98828 -1.550781,0.98828 -1.4384,0 -1.121072,-0.71802 0.611328,-1.38281 0.2225,-0.0854 0.413012,-0.13865 0.570312,-0.16211 0.11798,-0.0176 0.215719,-0.0174 0.292969,-0.002 z m -49.605469,14.54687 c 0.563,0 1.2091,0.55894 1.4375,1.24414 0.2284,0.6852 1.27236,1.25 2.31836,1.25 1.1473,0.003 2.002573,0.79936 2.158203,2.00586 0.2558,1.9842 0.251875,1.98398 -0.578125,0.0156 -0.7272,-1.7243 -1.014,-1.4625 -2.1875,2 -2.2869,6.7478 -2.159005,7.26501 1.453125,5.87891 0.86679,-0.33261 1.347206,-0.97725 1.066406,-1.43165 -0.2808,-0.4543 -0.053,-1.10762 0.50586,-1.45312 0.558999,-0.3455 1.031724,-0.26531 1.052734,0.17969 0.0208,0.445 0.28788,2.53769 0.59375,4.65039 0.48521,3.3515 0.321691,3.79434 -1.28711,3.46484 -1.139999,-0.2335 -1.723543,-1.07047 -1.527343,-2.19336 0.2702,-1.54661 0.100968,-1.61654 -1.144531,-0.46484 -0.804302,0.7438 -1.293138,1.63461 -1.085938,1.97851 0.2073,0.3438 0.633112,2.75282 0.945312,5.35352 0.458301,3.8172 0.220279,4.9902 -1.232421,6.0918 -2.6562,2.0143 -3.588582,1.72087 -2.925782,-0.91993 0.466,-1.857 0.0431,-2.5964 -2.021484,-3.53711 -2.19373,-0.9995 -2.933,-0.90454 -4.625,0.59766 l 0,0.002 c -1.1074,0.9832 -2.89345,3.13711 -3.96875,4.78711 -1.829,2.8063 -1.916141,2.8386 -1.369141,0.5 0.3216,-1.375 0.587657,-3.07218 0.597657,-3.77148 0.01,-0.6993 1.138671,-1.78366 2.513671,-2.41016 1.375,-0.6265 2.5,-1.74181 2.5,-2.47851 0,-0.7367 0.378144,-1.33985 0.839844,-1.33985 1.3562,0 3.218787,-4.84613 2.123047,-5.52343 -0.5292,-0.3271 -0.962891,-0.1018 -0.962891,0.5 0,0.7884 -0.576353,0.78464 -2.064453,-0.0117 -1.6562,-0.8864 -1.93455,-1.69636 -1.40625,-4.10157 0.672,-3.0594 3.453844,-9.07428 3.464844,-7.49218 0,0.4798 0.661991,0.32876 1.462891,-0.33594 0.80086,-0.6645 1.920481,-0.92131 2.488281,-0.57031 0.6158,0.3806 0.790877,0.0117 0.435547,-0.91407 -0.32758,-0.8536 -0.133313,-1.55078 0.429687,-1.55078 z m 22.080079,0 c -1.246,0 -1.108935,1.6751 0.322265,3.9668 0.6667,1.0675 1.361875,1.79057 1.546875,1.60547 0.6569,-0.6568 -0.992041,-5.57227 -1.86914,-5.57227 z m 44.525392,2.44922 c 2.63705,-0.1425 4.58398,1.13497 4.58398,3.17188 0,2.102 -1.69736,1.6418 -2.28906,-0.6211 -0.2877,-1.1 -1.0039,-2 -1.5918,-2 -0.7346,0 -0.76375,0.80266 -0.0937,2.56446 0.5364,1.4108 0.97461,2.9858 0.97461,3.5 0,1.829 -2.94921,0.89864 -4.16601,-1.31446 -2.0172,-3.6688 -1.78604,-4.51039 1.41406,-5.15039 0.40121,-0.0802 0.79125,-0.13004 1.16797,-0.15039 z m -56.474611,1.55078 c 0.5825,0 1.058594,0.45 1.058593,1 0,0.55 -0.198906,1 -0.441406,1 -0.2426,0 -0.718592,-0.45 -1.058594,-1 -0.339899,-0.55 -0.140993,-1 0.441407,-1 z m -1.882813,2 c 0.5824,0 0.781407,0.45 0.441406,1 -0.339899,0.55 -0.815993,1 -1.058593,1 -0.2425,0 -0.441407,-0.45 -0.441407,-1 0,-0.55 0.476094,-1 1.058594,-1 z m 4.191406,5.01368 c 1.8195,0.0124 1.963001,0.20242 0.75,0.98632 -1.938699,1.2529 -3,1.2529 -3,0 0,-0.55 1.012502,-0.99632 2.25,-0.98632 z m 51.666018,15.10937 c 0.3474,0.0143 0.64635,0.10534 0.8125,0.27149 0.3323,0.3323 -0.2583,0.56839 -1.3125,0.52539 -1.1649,-0.048 -1.40122,-0.28432 -0.60352,-0.60352 0.36095,-0.14445 0.75612,-0.20768 1.10352,-0.19336 z m -5.35742,1.87695 c 0.2425,0 0.4414,0.45 0.4414,1 0,0.55 -0.47609,1 -1.05859,1 -0.5824,0 -0.78131,-0.45 -0.44141,-1 0.34,-0.55 0.816,-1 1.0586,-1 z m 8.89843,4.72852 c 1.36478,0.14288 2.38885,2.54395 1.18555,4.4707 -0.6181,0.9897 -1.43581,1.80078 -1.81641,1.80078 -1.3826,0 -1.96044,-4.13494 -0.77734,-5.56054 0.46098,-0.55542 0.95327,-0.75856 1.4082,-0.71094 z m -11.8457,1.61523 c 0.11954,0.0201 0.25117,0.0713 0.38867,0.15625 0.55,0.3399 1,0.8161 1,1.0586 0,0.2426 -0.45,0.4414 -1,0.4414 -0.55,0 -1,-0.47804 -1,-1.06054 0,-0.43688 0.25274,-0.656 0.61133,-0.59571 z m -57.679687,0.23438 c 1.35583,-0.0382 3.06836,1.31489 3.068359,2.62109 0,0.8409 -0.403298,0.85523 -3.25,0.11133 -2.09447,-0.5474 -2.284063,-1.89285 -0.371093,-2.62695 0.17309,-0.0664 0.359044,-0.1 0.552734,-0.10547 z m 45.068359,0.52148 c 0.366661,0 0.732569,0.23256 1.199219,0.69922 0.9334,0.93339 0.667483,1.20117 -1.199219,1.20117 -1.866598,0 -2.132518,-0.26779 -1.199218,-1.20117 0.4667,-0.46665 0.83255,-0.69922 1.199218,-0.69922 z m 20.287108,1.40821 c 0.13224,-0.047 0.59291,0.59909 1.48633,1.99218 1.0583,1.65 1.56551,3.23649 1.12891,3.52539 -0.4366,0.2889 -0.43525,2.11073 0.002,4.04883 0.6841,3.0332 0.40374,3.99066 -2.00586,6.87696 -2.5465,3.0503 -2.66666,3.54062 -1.34766,5.42382 0.7975,1.1386 1.44922,2.42006 1.44922,2.84766 0,1.5409 -2.96262,0.73132 -4.88672,-1.33398 -2.1507,-2.3084 -1.79049,-4.63683 1.03321,-6.66993 1.3497,-0.9721 1.67888,-2.2741 1.36718,-5.4082 -0.2259,-2.2707 -0.94882,-4.46214 -1.60742,-4.86914 -2.0555,-1.2704 -0.1972,-4.16901 2.1875,-3.41211 1.8335,0.5819 2.01749,0.36556 1.42969,-1.68164 -0.2436,-0.84831 -0.33921,-1.3033 -0.23633,-1.33984 z m -20.751951,3.88867 c 0.10158,-0.0241 0.194504,-8.6e-4 0.271484,0.0762 0.3079,0.3079 -1.94e-4,1.11467 -0.683594,1.79297 -0.9876,0.9803 -1.101293,0.86661 -0.558593,-0.55859 0.2817,-0.73966 0.665953,-1.23812 0.970703,-1.31055 z m 27.833981,13.70703 c 0.13624,0.0482 0.38356,0.2613 0.75391,0.62891 0.6834,0.6783 0.99149,1.48506 0.68359,1.79296 -0.3079,0.3079 -0.86658,-0.24622 -1.24218,-1.23242 -0.33919,-0.89075 -0.4224,-1.26985 -0.19532,-1.18945 z m -10.75781,3.24023 c -0.35859,-0.0603 -0.61133,0.15883 -0.61133,0.59571 0,0.5825 0.45,1.06054 1,1.06054 0.55,0 1,-0.1988 1,-0.4414 0,-0.2425 -0.45,-0.7187 -1,-1.0586 -0.1375,-0.085 -0.26913,-0.13616 -0.38867,-0.15625 z m 5.75781,6.75977 c 0.13624,0.0483 0.38356,0.2613 0.75391,0.62891 0.6834,0.6783 0.99149,1.48506 0.68359,1.79296 -0.3079,0.3079 -0.86658,-0.24622 -1.24218,-1.23242 -0.33919,-0.89082 -0.4224,-1.26988 -0.19532,-1.18945 z m -52.453122,9.01953 c 0.3474,0.0143 0.64635,0.10533 0.8125,0.27149 0.3323,0.33229 -0.2583,0.56839 -1.3125,0.52539 -1.1649,-0.048 -1.401214,-0.28432 -0.603516,-0.60352 0.360952,-0.14445 0.756116,-0.20768 1.103516,-0.19336 z m 1.478516,9.2168 c 0.355,-0.0581 0.605468,0.16273 0.605468,0.59961 0,0.5825 0.648907,1.06054 1.441407,1.06054 0.7926,0 1.718694,0.45 2.058593,1 0.340002,0.55 -0.196506,0.98194 -1.191406,0.96094 -2.2555,-0.0474 -4.690828,-2.6065 -3.298828,-3.4668 0.13613,-0.0841 0.266426,-0.13492 0.384766,-0.15429 z m 3.40625,21.26562 c 0.34902,-0.002 0.760709,0.123 1.162109,0.3711 1.1667,0.721 1.182518,1.14244 0.09961,2.44726 l 0,0.002 c -1.498799,1.80591 -3.135399,1.85817 -8.0625,0.25977 l -3.5,-1.13477 4.484376,-0.34374 c 2.466,-0.18881 4.72679,-0.73761 5.02539,-1.22071 0.1546,-0.25156 0.441986,-0.37923 0.791016,-0.38086 z m -14.242188,5.39453 c 0.2425,0 0.441406,0.45 0.441406,1 0,0.55 -0.476093,1 -1.058593,1 -0.5824,0 -0.781305,-0.45 -0.441407,-1 0.340002,-0.55 0.815994,-1 1.058594,-1 z m 13.357422,3.12305 c 0.3474,0.0143 0.64635,0.10532 0.8125,0.27149 0.3323,0.33229 -0.2583,0.56839 -1.3125,0.52539 -1.1649,-0.048 -1.401215,-0.28432 -0.603516,-0.60352 0.360952,-0.14445 0.756116,-0.20768 1.103516,-0.19336 z m -7.416016,1.87695 c 3.3334,0 4.5,0.3889 4.5,1.5 0,0.825 0.573438,1.5 1.273438,1.5 1.4803,0 3.691644,8.43754 2.652344,10.11914 -1.0575,1.7112 -2.925782,0.0781 -2.925782,-2.55664 0,-1.2753 -0.674999,-2.8778 -1.5,-3.5625 -1.258299,-1.0443 -1.524543,-0.86334 -1.652343,1.12696 -0.24,3.738 -0.366503,4.23743 -1.658203,6.58203 -0.6695,1.2152 -1.098025,2.7643 -0.953125,3.4414 0.145,0.6771 -0.523829,1.40279 -1.486329,1.61329 -1.294699,0.2831 -1.749999,-0.25506 -1.75,-2.06836 0,-1.348 0.582169,-2.93354 1.292969,-3.52344 0.7107,-0.5898 1.397744,-2.64651 1.527344,-4.57031 0.2081,-3.0855 -0.0146,-3.45024 -1.90625,-3.08594 -2.4336,0.4686 -4.611925,2.93117 -5.515625,6.23437 -0.8962,3.2758 -2.017125,2.75179 -1.953125,-0.91211 0.0763,-4.3751 -2.015259,-4.66941 -3.398437,-0.47851 -0.9597,2.908 -2.688207,4.64062 -4.628907,4.64062 -1.2859,0 -0.01,-2.93141 2.541016,-5.82031 1.6093,-1.8256 2.700581,-3.90509 2.425781,-4.62109 -0.2747,-0.716 0.202074,-1.56974 1.058594,-1.89844 0.8566,-0.3288 1.612641,-0.16161 1.68164,0.37109 0.0688,0.5327 0.2375,1.41875 0.375,1.96875 0.137502,0.55 0.306002,1.4762 0.375,2.0586 0.0688,0.5825 0.575001,0.7813 1.125,0.4414 1.4182,-0.8764 1.2419,-4.24845 -0.25,-4.78125 -1.7109,-0.6111 -0.440281,-1.79222 2.136719,-1.98632 1.1622,-0.0876 2.113281,-0.51232 2.113281,-0.94532 0,-0.4329 2.025,-0.78711 4.5,-0.78711 z m -4.941406,12 c 0.2425,0 0.441406,0.45 0.441406,1 0,0.55 -0.476093,1 -1.058593,1 -0.5824,0 -0.781305,-0.45 -0.441407,-1 0.340002,-0.55 0.815994,-1 1.058594,-1 z m 12.953125,4.02149 c 0.69608,-0.0932 1.289063,1.10505 1.289063,3.66015 0,2.0258 -0.317478,4.54225 -0.705078,5.58985 -0.6111,1.6519 -0.867188,1.70803 -1.929688,0.42773 -0.7967,-0.9599 -0.995959,-2.91412 -0.568359,-5.58789 0.4175,-2.611 1.217992,-3.99666 1.914062,-4.08984 z m -9.953125,5.97851 c -0.2426,0 -0.718593,0.45 -1.058594,1 -0.339899,0.55 -0.140993,1 0.441407,1 0.5825,0 1.058593,-0.45 1.058593,-1 0,-0.55 -0.198906,-1 -0.441406,-1 z m 44.3125,6.57422 c 0.711444,-0.005 1.128904,0.32467 1.128904,0.9375 0,0.7285 0.27362,2.03635 0.60742,2.90625 1.0029,2.6135 -2.166755,1.84439 -3.380855,-0.82031 -0.9326,-2.0469 -0.808556,-2.47515 0.839844,-2.90625 0.29813,-0.078 0.567537,-0.11553 0.804687,-0.11719 z m 2.289064,8.65039 c 0.97954,0.0878 1.83984,1.18575 1.83984,2.77539 0,2.8181 -1.74497,3.34523 -3.04297,0.91993 -0.766092,-1.4314 -0.81071,-2.46663 -0.13672,-3.14063 0.42548,-0.4255 0.89461,-0.59462 1.33985,-0.55469 z m 9.22851,0.15821 c 0.35859,0.0159 0.61133,0.41352 0.61133,1.05664 0,0.8575 -0.45,1.56054 -1,1.56054 -0.55,0 -1,-0.4238 -1,-0.9414 0,-0.5175 0.45,-1.2187 1,-1.5586 0.1375,-0.085 0.26914,-0.12247 0.38867,-0.11718 z m -18.916011,2.59961 c 0.53785,-0.0907 1.027343,0.27924 1.027343,1.18359 0,0.6417 -0.605603,1.36853 -1.345703,1.61523 -0.8411,0.2803 -1.216,-0.17605 -1,-1.21875 0.1941,-0.9371 0.78051,-1.48933 1.31836,-1.58007 z m 6.507812,17.01757 c -0.02524,0 -0.04477,0.0136 -0.06836,0.0176 l 0.166016,0 c -0.03326,-0.004 -0.0631,-0.0176 -0.09766,-0.0176 z m 19.460939,0 c -0.0545,0 -0.0937,0.014 -0.14453,0.0176 l 0.28125,0 c -0.0463,-0.004 -0.088,-0.0176 -0.13672,-0.0176 z"
       transform="translate(-1044.3111,-67.218629)"
       id="path4160"
       inkscape:connector-curvature="0" />
  </g>
</svg>
